<svg xmlns="http://www.w3.org/2000/svg" xmlns:xlink="http://www.w3.org/1999/xlink" width="153" height="153" viewBox="0 0 153 153"><defs><style>.a{fill:#fe5492;}.b{clip-path:url(#a);}</style><clipPath id="a"><rect class="a" width="153" height="153" transform="translate(512 812)"/></clipPath></defs><g class="b" transform="translate(-512 -812)"><g transform="translate(519.789 812)"><path class="a" d="M122.436,28.017a8.3,8.3,0,0,0,8.3-8.3c0-3.939-6.118-15.643-7.841-18.865-.259-.5-.418-.808-.418-.828l-.015.027c0-.011-.027-.051-.027-.051s-8.3,15.131-8.3,19.716A8.3,8.3,0,0,0,122.436,28.017Z" transform="translate(-53.592)"/><path class="a" d="M70.134,44.533a8.3,8.3,0,0,0,8.3-8.3c0-3.939-6.116-15.64-7.841-18.863-.258-.5-.417-.809-.417-.829l-.015.027c0-.01-.027-.05-.027-.05s-8.3,15.131-8.3,19.716A8.3,8.3,0,0,0,70.134,44.533Z" transform="translate(-32.603 -6.628)"/><path class="a" d="M174.738,44.533a8.3,8.3,0,0,0,8.3-8.3c0-3.939-6.116-15.64-7.842-18.863-.26-.5-.418-.809-.418-.829,0,0-.013.023-.014.027l-.028-.05s-8.3,15.131-8.3,19.716A8.3,8.3,0,0,0,174.738,44.533Z" transform="translate(-74.582 -6.628)"/><path class="a" d="M27.445,134.184H144.951a3.61,3.61,0,0,0,3.609-3.611V115.545a3.609,3.609,0,0,0-3.609-3.61h-5.518l-3.741-.033a3.222,3.222,0,0,0,.859-2.177V93.964a3.244,3.244,0,0,0-3.244-3.244H121.632V64.944h-8.241V90.72H90.318V55.1h0v-.048h-8.24V90.72H59V64.944h-8.24V90.72H39.088a3.244,3.244,0,0,0-3.244,3.244v15.762a3.151,3.151,0,0,0,.654,1.856,4.065,4.065,0,0,0,.2.354H27.445a3.609,3.609,0,0,0-3.61,3.61v15.028A3.611,3.611,0,0,0,27.445,134.184Z" transform="translate(-17.355 -22.094)"/><path class="a" d="M13.479,194.865h-.468V224.2c0,4.011,30.822,7.264,68.844,7.264S150.7,228.213,150.7,224.2V194.865Z" transform="translate(-13.011 -78.2)"/></g></g></svg>