<svg xmlns="http://www.w3.org/2000/svg" width="631" height="419.879" viewBox="0 0 631 419.879"><defs><style>.a{fill:#ffc3c3;opacity:0.365;}.b{fill:#9f5353;}.c{fill:none;stroke:#9f5353;stroke-miterlimit:10;}.d{fill:#ff6375;}.e{fill:#ff5064;}.f{fill:#ef374c;}.g{fill:#fbbebe;}.h{opacity:0.1;isolation:isolate;}.i{fill:#2f2e41;}.j{fill:#3f3d56;}.k{fill:#ff6584;}.l{opacity:0.3;}.m{fill:#ff2f2f;}</style></defs><g transform="translate(0 0.007)"><path class="a" d="M630.964,273.759A182.1,182.1,0,0,1,527.156,434.845a178.928,178.928,0,0,1-76.894,17.25q-5.736,0-11.39-.355a1972.437,1972.437,0,0,0-246.744,0q-5.65.352-11.39.355a178.87,178.87,0,0,1-88.1-23.052A182.139,182.139,0,0,1,.037,273.759c-2-101.9,78.657-185.21,179.858-185.68A179.722,179.722,0,0,1,315.5,148.814,179.722,179.722,0,0,1,451.106,88.079C552.307,88.548,632.968,171.86,630.964,273.759Z" transform="translate(0 -32.223)"/><path class="b" d="M580.595,614.467a178.928,178.928,0,0,1-76.894,17.25q-5.736,0-11.39-.355a1972.425,1972.425,0,0,0-246.744,0q-5.65.352-11.39.355a178.87,178.87,0,0,1-88.1-23.052c40.67-17.617,120.106-29.584,211.446-29.584C458.574,579.08,545.056,593.723,580.595,614.467Z" transform="translate(-53.439 -211.845)"/><path class="c" d="M592.612,235.121a14.573,14.573,0,0,0-15.14-2.4c-7.533,3.285-10.813,12.513-10.286,20.713s3.944,15.894,6.157,23.808c2.973,10.63,3.745,22.151.261,32.624s-11.682,19.7-22.315,22.663c-9.869,2.749-20.339-.007-30.208-2.755" transform="translate(-190.625 -84.725)"/><path class="d" d="M651.568,206.066a8.605,8.605,0,0,0-17.181-1v.011l-.991,17.182,17.181.991a8.6,8.6,0,1,0,.991-17.181Z" transform="translate(-231.713 -72.056)"/><path class="d" d="M622.435,276.612a8.6,8.6,0,1,0-17.181-.991l-.991,17.182,17.182.991a8.6,8.6,0,0,0,.991-17.181Z" transform="translate(-221.055 -97.865)"/><path class="d" d="M585.723,204.518a8.6,8.6,0,0,0-11.073,13.175l.02.017,13.192,11.052,11.053-13.191a8.605,8.605,0,1,0-13.192-11.052Z" transform="translate(-209.1 -73.694)"/><path class="c" d="M701.6,221.078a14.575,14.575,0,0,0-13.955-6.345c-8.135,1.16-13.755,9.181-15.432,17.225s-.433,16.37-.407,24.588c.034,11.037-2.291,22.348-8.44,31.515s-16.508,15.88-27.545,15.9c-10.245.02-19.6-5.425-28.382-10.7" transform="translate(-222.218 -78.515)"/><path class="e" d="M777.37,200.85a8.6,8.6,0,0,0-16.3-5.532l-5.532,16.3,16.3,5.532a8.605,8.605,0,0,0,5.532-16.3Z" transform="translate(-276.397 -69.322)"/><path class="d" d="M730.5,261.084a8.6,8.6,0,0,0-16.3-5.532l-5.532,16.3,16.3,5.532a8.605,8.605,0,0,0,5.532-16.3Z" transform="translate(-259.25 -91.357)"/><path class="e" d="M716.543,182.257a8.605,8.605,0,1,0-14.169,9.768l0,0,9.771,14.167,14.167-9.771a8.6,8.6,0,0,0-9.771-14.167Z" transform="translate(-256.39 -65.315)"/><path class="c" d="M683.464,43.8A14.574,14.574,0,0,1,697.6,49.736c4.674,6.759,2.6,16.331-2.162,23.026s-11.722,11.435-17.771,17c-8.124,7.471-14.847,16.859-17.4,27.6s-.444,22.9,7.036,31.017c6.943,7.533,17.295,10.7,27.131,13.565" transform="translate(-241.163 -15.962)"/><path class="f" d="M679.765,4.5A8.6,8.6,0,0,1,694.9,12.7l0,.009-8.205,15.128-15.128-8.2a8.6,8.6,0,1,1,8.2-15.128Z" transform="translate(-244.026 0)"/><path class="e" d="M667.386,79.812a8.605,8.605,0,0,1,15.133,8.2l-.005.009-8.205,15.128-15.128-8.2a8.605,8.605,0,0,1,8.2-15.128Z" transform="translate(-239.498 -27.551)"/><path class="f" d="M737.818,34.469A8.605,8.605,0,0,1,740.288,51.5l-.02,0-17.035,2.45-2.449-17.035a8.6,8.6,0,0,1,17.035-2.449Z" transform="translate(-263.649 -9.912)"/><rect class="g" width="15.854" height="8.244" transform="translate(279.352 209.96)"/><rect class="h" width="15.854" height="8.244" transform="translate(279.352 209.96)"/><circle class="i" cx="20.294" cy="20.294" r="20.294" transform="translate(229.887 50.782)"/><path class="g" d="M462.5,323.774s-6.342-1.9-7.61-1.268,4.439,5.708,4.439,5.708Z" transform="translate(-166.344 -117.936)"/><path class="h" d="M462.5,323.774s-6.342-1.9-7.61-1.268,4.439,5.708,4.439,5.708Z" transform="translate(-166.344 -117.936)"/><path class="j" d="M390.052,580.58s14.586,1.9,17.123,1.9,9.513,2.537,5.708,5.708-27.9,7.61-31.074,5.708-7.61-7.61-4.439-8.244S390.052,580.58,390.052,580.58Z" transform="translate(-137.652 -212.394)"/><path class="g" d="M354.071,615.751,349,624.629l6.342,3.171,12.049,2.537,6.342-8.244-2.537-9.513Z" transform="translate(-127.672 -224.1)"/><path class="i" d="M399.389,514.58s-8.244,34.88-6.976,36.782,3.8,6.976,1.268,8.878S381,562.777,381,562.777l3.171-18.391,4.439-22.2Z" transform="translate(-139.379 -188.249)"/><path class="i" d="M365.95,394.2l8.244,37.416s1.268,18.391-1.9,25.367S352,537.521,352,537.521s17.757.634,21.562-1.268,10.222-45.829,10.222-45.829S404.634,448.737,404,440.492s3.151-50.123-2.23-53.282S365.95,394.2,365.95,394.2Z" transform="translate(-128.77 -141.431)"/><path class="j" d="M363.083,628.477l7.61-7.61s20.294,10.147,23.464,10.781,10.147,5.707,3.171,7.61-32.977.634-39.319,0-19.025-1.268-17.123-5.073,5.073-17.123,5.073-17.123,1.752-2.423,2.778.691,1.661,7.553,4.2,7.553S363.083,628.477,363.083,628.477Z" transform="translate(-124.635 -225.411)"/><path class="g" d="M528.408,380.848l17.757-1.268,12.049,6.342-1.268,7.61-5.073,1.268s-13.952-5.708-22.2-3.805S528.408,380.848,528.408,380.848Z" transform="translate(-192.297 -138.863)"/><path class="i" d="M556.932,378.263s6.976,7.63,0,10.474c0,0,1.268,2.209,6.342,2.844s12.049,5.073,13.952,5.073,10.147-1.268,5.073-8.244-25.367-22.2-25.367-22.2-5.708-2.537-7.61,2.537-2.906,6.233-2.906,6.233S555.663,377,556.932,378.263Z" transform="translate(-199.893 -133.741)"/><path class="g" d="M479,479.881s5.708,21.562,5.708,22.83,7.61-5.073,7.61-5.073l1.268-11.415s-5.073-5.073-5.073-8.244S479,479.881,479,479.881Z" transform="translate(-175.23 -174.478)"/><path class="i" d="M492.608,498.263s-4.439,5.708-7.61,3.805l1.9,21.562s1.268,10.781,5.708,6.342,8.878-26.635,8.878-26.635,6.342-13.318,1.268-15.22a52.846,52.846,0,0,0-8.878-2.537S493.876,498.9,492.608,498.263Z" transform="translate(-177.425 -177.64)"/><path class="k" d="M432,390.848l19.025,39.319s6.342,22.2,8.878,22.83,12.049-3.805,13.318-4.439-10.781-25.367-10.781-29.806-14.586-29.172-14.586-29.172Z" transform="translate(-158.036 -142.521)"/><path class="h" d="M432,390.848l19.025,39.319s6.342,22.2,8.878,22.83,12.049-3.805,13.318-4.439-10.781-25.367-10.781-29.806-14.586-29.172-14.586-29.172Z" transform="translate(-158.036 -142.521)"/><path class="k" d="M431.78,277s.634,13.318-1.9,22.2,3.171,38.05,3.171,38.05,9.513.634,12.049,0,36.782-1.268,38.685,0,1.268,23.464,0,22.83-34.245-7.61-50.1-5.073-17.757-1.268-18.391-2.537-11.415-35.514-11.415-35.514l-3.805-16.489L395,282.7l3.171-17.123Z" transform="translate(-144.5 -97.159)"/><circle class="g" cx="17.123" cy="17.123" r="17.123" transform="translate(231.789 62.831)"/><circle class="g" cx="17.123" cy="17.123" r="17.123" transform="translate(199.763 103.101)"/><path class="g" d="M400,138.818s11.415,7.61,9.513,12.049-6.976,9.513-6.976,9.513l-.634,6.976,9.513,3.171,24.1,1.268s-1.268-21.562-8.878-27.269-16.489-9.513-17.757-14.586S400,138.818,400,138.818Z" transform="translate(-146.33 -47.131)"/><path class="g" d="M438.89,166.192c-4.151-7.753-15.827-6.811-18.247,1.643a7.649,7.649,0,0,0,.734,6.179c4.439,7.61,7.61,13.318,7.61,13.318l13.952-1.268S443.213,174.267,438.89,166.192Z" transform="translate(-153.757 -58.863)"/><path class="i" d="M398.36,174.994s-16.67,10.518-15.4,17.494a186.7,186.7,0,0,1,2.537,23.464c0,4.439,4.439,18.391,10.781,20.928s6.342-4.439,15.22,3.805S429.887,252.735,429.253,254s2.537-11.415-2.537-16.489-10.781-19.659-5.708-26,9.513-22.83,9.513-22.83-.634-3.805-4.439-3.171-27.269-1.9-28.538-5.073A5.353,5.353,0,0,1,398.36,174.994Z" transform="translate(-140.071 -64.02)"/><path class="i" d="M403.553,172.895s17.4-18.958,19.942-18.324,9.842,8.139,9.842,8.139l-9.842-6.871-19.942,18.124Z" transform="translate(-147.63 -56.543)"/><path class="g" d="M354.023,194.58s2.382,25.65,5.63,28.045S335,224.386,335,224.386s6.342-19.659,2.537-22.2S354.023,194.58,354.023,194.58Z" transform="translate(-122.551 -71.185)"/><path class="j" d="M356.707,225.563s-21.562-5.708-24.1-2.537-7.61,30.44-7.61,30.44,2.537,18.391,6.976,31.709,10.147,60.246,14.586,60.246,12.049-6.976,13.952-6.976,13.318-5.708,20.294-4.439a24.688,24.688,0,0,0,12.049-.634s-3.171-26.635-10.781-33.611-11.415-55.173-11.415-55.173S359.878,224.3,356.707,225.563Z" transform="translate(-118.893 -81.241)"/><path class="g" d="M427,317.093s7.211,9.787,14.386,10.284l4-.138s-6.342,16.489-3.171,17.123,12.683-12.049,9.513-19.025-12.683-17.757-12.683-17.757Z" transform="translate(-156.207 -112.523)"/><path class="g" d="M462.721,322.58s-10.781,10.147-6.342,14.586,10.147,0,10.147,0S470.965,330.824,462.721,322.58Z" transform="translate(-166.563 -118.011)"/><path class="h" d="M462.721,322.58s-10.781,10.147-6.342,14.586,10.147,0,10.147,0S470.965,330.824,462.721,322.58Z" transform="translate(-166.563 -118.011)"/><circle class="i" cx="20.294" cy="20.294" r="20.294" transform="translate(234.326 46.977)"/><circle class="i" cx="12.049" cy="12.049" r="12.049" transform="translate(252.083 38.099)"/><path class="i" d="M400.03,66.129a12.05,12.05,0,0,1,10.781-11.981,12.288,12.288,0,0,0-1.268-.068,12.049,12.049,0,0,0-.015,24.1,11.9,11.9,0,0,0,1.284-.068A12.049,12.049,0,0,1,400.03,66.129Z" transform="translate(-145.411 -19.786)"/><ellipse class="i" cx="16.171" cy="12.049" rx="16.171" ry="12.049" transform="translate(231.789 63.466)"/><path class="i" d="M328.577,167.629c-.223,1.19-.751,2.386-.3,3.612a19.093,19.093,0,0,0,1.619,2.488,3.257,3.257,0,0,1-1.346,4.626,4.533,4.533,0,0,0-3.115-.527,2.028,2.028,0,0,0-1.571,2.2c.223,1.464,1.93,2.4,2.8,3.709a9.6,9.6,0,0,1,1.06,3.145A28.083,28.083,0,0,1,328.984,192c.087,1.71-.745,3.518-2.443,3.764-1.427.205-2.962-.762-3.994-1.936s-1.729-2.568-2.674-3.8c-3.073-4.017-8.325-5.89-11.881-9.536-4.557-4.672-5.522-11.592-3.892-17.109a11.03,11.03,0,0,1,3.742-5.945c2.02-1.483,4.718-1.958,6.981-3.111,2.419-1.233,4.275-3.206,6.415-4.817s4.791-2.9,7.711-2.468c2.037.3,3.969,1.412,5.99,1.935a9.69,9.69,0,0,0,6.606-.545l-1.878,2.015a9.57,9.57,0,0,0,4.257.646,5.164,5.164,0,0,1-2.858,2.58,5.131,5.131,0,0,0,3.562,1.074c-1.394,1.592-2.891,3.249-5.039,3.8-1.052.272-2.2.259-3.284.436a16.683,16.683,0,0,0-6.154,2.8c-.992.63-2.241,1.344-2.234,2.651C327.924,165.524,328.8,166.413,328.577,167.629Z" transform="translate(-110.977 -53.762)"/><path class="j" d="M354.075,237.048s-5.708,20.928,4.439,25.367,31.075,20.928,34.88,26.635a21.3,21.3,0,0,0,8.244,7.61s15.22-12.683,12.049-16.488-15.854-15.22-15.854-15.22S365.49,230.072,354.075,237.048Z" transform="translate(-128.945 -86.383)"/><path class="g" d="M403.7,233.915s-23.3-6.66-30.358-7.769-25.449.793-21.644,3.964,26,5.708,26,5.708l26.635,10.147Z" transform="translate(-128.474 -82.616)"/><path class="i" d="M431.925,196.482s1.9,12.684,1.9,17.123,3.171,8.244.634,8.244-4.439-2.537-4.439,0-3.805,17.757,0,17.757,13.318-2.537,15.22-2.537,8.244-1.268,7.61-8.244-3.171-14.586-1.9-15.854,1.9-7.61.634-8.878-4.439-9.513-4.439-9.513Z" transform="translate(-156.695 -71.185)"/><g class="l" transform="translate(404.297 250.464)"><path class="m" d="M642.5,398.868a4.444,4.444,0,1,0-1.067,8.825h.007l8.826,1.06,1.06-8.826a4.444,4.444,0,1,0-8.825-1.067Z" transform="translate(-637.517 -394.95)"/></g><g class="l" transform="translate(509.017 209.701)"><path class="m" d="M809.273,332.943a4.445,4.445,0,1,0-4.365,7.744l7.744,4.365,4.365-7.744a4.445,4.445,0,1,0-7.736-4.379l-.008.014Z" transform="translate(-802.645 -330.673)"/></g><g class="l" transform="translate(463.275 268.221)"><path class="m" d="M735.5,426.868a4.444,4.444,0,1,0-1.067,8.825h.007l8.826,1.06,1.06-8.826a4.444,4.444,0,1,0-8.824-1.067Z" transform="translate(-730.517 -422.95)"/></g></g></svg>